<svg xmlns="http://www.w3.org/2000/svg" width="32" height="32" fill="none"><path d="M31.333 8.667v-2a2 2 0 0 0-2-2h-2a.667.667 0 0 0-.593.366L26.253 6H26V3.333A1.333 1.333 0 0 0 24.667 2h-1.334A1.333 1.333 0 0 0 22 3.333V6h-.253l-.487-.967a.667.667 0 0 0-.593-.366h-9.334a.667.667 0 0 0-.593.366L10.253 6H10V3.333A1.333 1.333 0 0 0 8.667 2H7.333A1.333 1.333 0 0 0 6 3.333V6h-.253l-.487-.967a.667.667 0 0 0-.593-.366h-2a2 2 0 0 0-2 2v2A1.333 1.333 0 0 0 2 10v16a1.334 1.334 0 0 0-1.333 1.333v2a.667.667 0 0 0 .666.667h29.334a.666.666 0 0 0 .666-.667v-2A1.334 1.334 0 0 0 30 26V10a1.333 1.333 0 0 0 1.333-1.333zm-8-5.334h1.334V6h-1.334V3.333zm-16 0h1.334V6H7.333V3.333zM2 6.667A.667.667 0 0 1 2.667 6h1.586l.487.967a.667.667 0 0 0 .593.366h5.334a.667.667 0 0 0 .593-.366L11.747 6h8.506l.487.967a.667.667 0 0 0 .593.366h5.334a.667.667 0 0 0 .593-.366L27.747 6h1.586a.667.667 0 0 1 .667.667v2H2v-2zm28 22H2v-1.334h28v1.334zM28.667 26H3.333V10h25.334v16z" fill="#000"/><path d="M10.667 15.333h10.666a1.333 1.333 0 0 1 1.334 1.334V26H9.333v-9.333a1.333 1.333 0 0 1 1.334-1.334z" fill="#F9D718"/></svg>