<svg xmlns="http://www.w3.org/2000/svg" width="32" height="32" fill="none"><g clip-path="url(#a)"><path d="M24.589 6.797H10.864l2.431-3.406h9.346l1.948 3.406z" fill="#F9D718"/><path d="M32 12.246V8.568a2.725 2.725 0 0 0-2.337-2.724l-2.683-.382-1.976-3.433A2.725 2.725 0 0 0 22.641.667h-9.346a2.725 2.725 0 0 0-2.213 1.137L8.466 5.47l-5.32.484a2.725 2.725 0 0 0-2.48 2.724v3.57a.681.681 0 0 0 .682.68v1.363a.68.68 0 0 0-.681.681v2.725a.681.681 0 0 0 .68.68h7.616l.245 1.213a2.725 2.725 0 0 0 2.67 2.194h1.05v9.536a.681.681 0 1 0 1.362 0v-9.536h4.087v9.536a.681.681 0 0 0 1.362 0v-9.536h1.049a2.725 2.725 0 0 0 2.67-2.194l.245-1.212h7.616a.681.681 0 0 0 .68-.681V14.97a.681.681 0 0 0-.68-.681v-1.362a.681.681 0 0 0 .68-.682zM2.029 8.664A1.362 1.362 0 0 1 3.269 7.3l5.633-.504a.681.681 0 0 0 .49-.286l2.8-3.91a1.363 1.363 0 0 1 1.103-.572h9.346a1.362 1.362 0 0 1 1.185.681l2.132 3.747a.681.681 0 0 0 .497.333l3.011.43a1.362 1.362 0 0 1 1.171 1.362v2.983h-1.43a3.406 3.406 0 0 0-6.675 0H10.135a3.406 3.406 0 0 0-6.676 0H2.03V8.664zm25.884 3.582a2.043 2.043 0 1 1-4.086 0 2.043 2.043 0 0 1 4.086 0zm-23.037.682a1.955 1.955 0 0 1 0-1.363 2.043 2.043 0 0 1 3.842 0c.163.44.163.923 0 1.363a2.044 2.044 0 0 1-3.842 0zm5.259 0h12.397c.099.494.309.96.613 1.362H9.522c.304-.402.514-.868.613-1.362zm-7.425 0h.75c.099.494.308.96.612 1.362H2.71v-1.362zm19.413 6.396a1.362 1.362 0 0 1-1.362 1.096h-8.882a1.363 1.363 0 0 1-1.363-1.096l-.163-.947h11.96l-.19.947zm8.514-2.31H2.03v-1.362h28.608v1.363zm-.68-2.724h-1.363c.304-.402.514-.868.613-1.362h.75v1.362z" fill="#000"/></g><defs><clipPath id="a"><path fill="#fff" d="M0 0h32v32H0z"/></clipPath></defs></svg>