<svg xmlns="http://www.w3.org/2000/svg" width="32" height="32" fill="none"><g clip-path="url(#a)"><path d="M16 7a1 1 0 0 1-1-1V4a1 1 0 0 1 2 0v2a1 1 0 0 1-1 1zM12 8c-.53 0-.67-.26-1.71-1.29a1.004 1.004 0 0 1 1.42-1.42l1 1A1 1 0 0 1 12 8zM20 8a1 1 0 0 1-.71-1.71l1-1a1.004 1.004 0 0 1 1.42 1.42C20.65 7.77 20.52 8 20 8z" fill="#F9D718"/><path d="M17.2 18.22c1.49.74 1.63.89 2.12.73l2.84-.95H31a1 1 0 0 0 0-2h-7.28l2.57-4.5a1 1 0 0 1 .87-.5H31a1 1 0 0 0 0-2h-3.84a3 3 0 0 0-2.6 1.51l-3.24 5.66-2.24.75-1.63-.81a1 1 0 0 0-1.16.18l-.49.49-1.35-.67a1 1 0 0 0-1.16.18l-.56.57-.88-.3 3.86-3.85a1.004 1.004 0 1 0-1.42-1.42l-4.07 4.08-2.78-4.86A3 3 0 0 0 4.84 9H1a1 1 0 0 0 0 2h3.84a1 1 0 0 1 .87.5L8.28 16H1a1 1 0 0 0 0 2h8.84l2.84.95a1 1 0 0 0 1-.24l.49-.49.8.4V20H14a1 1 0 0 0 0 2h1v1.38c-1.13-.56-.69-.54-3.24.31a4 4 0 0 0-7.62.31H1a1 1 0 0 0 0 2h3.14a4 4 0 0 0 7.78-.25l2-.67c1.7.85 1.83 1 2.28.89.921-.25 1.83-.547 2.72-.89l1.15.57a4 4 0 0 0 7.79.35H31a1 1 0 0 0 0-2h-3.14a4 4 0 0 0-7.57-.47c-1.45-.73-.94-.7-3.29.08V22h1a1 1 0 0 0 0-2h-1v-1.59l.2-.19zM8 27a2 2 0 1 1 0-4 2 2 0 0 1 0 4zm16-4a2 2 0 1 1 0 4 2 2 0 0 1 0-4z" fill="#000"/></g><defs><clipPath id="a"><path fill="#fff" d="M0 0h32v32H0z"/></clipPath></defs></svg>