<?xml version="1.0" encoding="UTF-8"?> <svg xmlns="http://www.w3.org/2000/svg" width="1512" height="651" viewBox="0 0 1512 651" fill="none"><g clip-path="url(#clip0_1_3)"><rect width="1512" height="651" fill="#1B1B1B"></rect><path d="M311.388 222.81C307.024 227.311 301.733 230.422 296.742 234.187C288.342 240.489 280.76 248.428 273.642 256.122C268.623 261.551 263.66 266.953 258.287 272C237.123 291.862 222.231 318.027 204.831 341.026C202.54 344.054 200.304 347.165 197.494 349.784C194.304 352.73 190.731 355.022 186.449 355.868C174.558 358.187 167.93 351.721 165.885 340.235C164.657 333.387 167.657 325.393 169.403 318.845C175.512 295.736 186.967 275.438 195.749 253.394C196.131 252.411 196.513 251.293 195.967 250.502C195.313 249.601 194.085 250.12 193.158 250.338C191.167 250.829 189.367 251.729 187.758 252.984C169.894 267.117 152.139 281.358 135.911 297.428C114.993 318.108 97.1014 341.19 80.8738 365.662C71.219 380.231 61.3461 394.691 51.4459 409.096C46.5094 416.272 36.7456 426.967 27.0636 425.93C21.1998 425.302 16.236 421.346 12.7996 416.763C9.19953 411.961 8.9268 406.395 9.71773 400.611C12.1723 382.85 19.9725 366.072 27.4454 349.975C37.5911 328.148 49.6459 307.277 59.7097 285.424C65.4098 273.037 70.4827 260.378 77.1101 248.428C78.7465 245.482 80.0011 242.344 80.3283 238.934C80.7374 234.732 78.6919 233.15 74.8737 234.978C68.3281 238.115 61.7825 241.335 55.4005 244.8C36.8001 254.921 18.227 265.071 1.12664 277.648C-5.22805 282.341 -10.6827 287.988 -14.9101 294.727C-17.4465 298.792 -20.7466 301.548 -25.5739 302.775C-34.6287 305.067 -40.3561 301.22 -45.9471 291.862C-49.929 285.233 -47.9926 277.839 -41.2288 272.11C-34.5196 266.407 -26.6649 262.37 -18.7556 258.768C4.39943 248.21 25.9181 234.705 48.1731 222.509C61.8916 215.007 76.4555 209.632 92.0286 207.286C102.202 205.758 111.884 206.385 119.193 214.843C126.829 223.683 127.975 233.805 123.747 244.418C118.838 256.695 112.184 268.154 105.856 279.721C100.701 289.134 95.5196 298.547 90.3649 307.986C89.6013 309.405 88.9194 310.906 88.4558 312.488C97.2105 305.504 104.602 297.21 111.12 288.288C123.966 270.745 138.53 254.785 154.021 239.589C166.703 227.148 180.012 215.471 194.685 205.403C203.467 199.374 212.849 195.691 223.759 198.091C236.768 200.929 244.568 211.187 243.586 224.474C242.795 234.841 242.223 245.236 238.541 255.194C238.895 255.194 239.195 255.276 239.25 255.194C252.832 237.624 269.66 223.219 285.287 207.64C296.415 196.536 308.333 186.714 323.17 180.958C330.206 178.23 337.352 176.593 344.716 179.648C350.771 182.158 354.616 186.96 357.262 192.662C361.38 201.529 362.28 211.46 360.562 221.036C359.689 225.893 358.543 230.803 356.607 235.36C355.625 237.651 354.452 239.916 352.816 241.853C351.371 243.572 348.18 244.581 348.452 247.228C350.525 245.618 352.652 244.036 354.916 242.726C362.362 238.443 371.089 237.188 379.244 234.541C396.699 228.894 411.89 216.425 420.836 200.41C423.427 195.772 425.799 190.561 430.49 188.133C435.727 185.432 442.545 187.287 446.554 191.598C450.564 195.909 452.009 202.157 451.573 208.022C451.191 212.933 449.336 217.844 445.027 220.6C449.173 218.526 455.909 218.472 460.491 217.571C465.918 216.507 471.373 215.443 476.8 214.379C487.955 212.197 499.137 210.014 510.292 207.831C531.674 203.657 553.002 199.728 574.603 196.864C587.885 195.09 606.921 187.969 616.604 201.338C621.131 207.586 623.831 222.509 616.194 227.802C613.903 229.385 610.958 229.576 608.203 229.712C585.976 230.913 563.748 233.45 541.847 237.57C524.365 240.871 506.883 243.463 489.319 246C473.364 248.292 458.009 252.821 442.382 256.995C438.563 258.004 434.718 259.041 431.309 261.033C422.908 265.889 418.817 274.838 413.881 282.777C406.626 294.454 399.726 306.377 393.617 318.681C387.508 330.986 381.289 343.427 376.326 356.168C375.235 358.951 374.171 361.87 374.444 364.844C374.771 368.691 378.344 372.428 382.38 371.965C384.017 371.774 385.489 370.982 386.935 370.191C399.29 363.452 411.672 356.686 422.963 348.338C431.363 342.117 439.081 335.051 446.8 328.012C449.173 325.857 451.627 323.619 454.627 322.555C462.918 319.609 467.255 327.685 468.319 334.533C469.055 339.198 468.046 343.781 465.782 347.874C458.009 361.87 448.245 374.884 435.809 385.088C424.927 394.009 412.163 399.875 399.017 404.649C392.853 406.887 386.253 408.414 379.735 407.65C365.88 406.068 355.271 393.627 349.816 381.595C344.007 368.827 342.807 354.04 345.779 340.371C347.934 330.495 352.625 321.464 357.589 312.734C364.816 300.02 371.526 287.033 377.962 273.91C378.998 271.809 377.498 270.391 375.289 271.1C362.907 275.083 350.198 276.911 337.243 277.184C332.879 277.266 329.934 285.696 328.052 288.998C325.215 293.99 322.543 299.065 320.006 304.194C314.933 314.48 310.488 325.065 306.642 335.869C304.379 342.226 302.333 348.72 301.651 355.431C300.969 362.143 301.651 369.127 304.706 375.157C306.533 378.731 309.179 382.114 309.397 386.124C309.588 389.453 307.951 392.699 305.633 395.128C303.097 397.774 299.579 399.629 295.897 399.738C292.569 399.848 289.351 398.565 286.378 397.01C281.005 394.227 276.123 390.49 272.114 385.961C264.314 377.176 259.978 365.389 260.223 353.631C260.469 342.363 264.86 331.913 269.36 321.764C278.66 300.784 287.551 279.585 298.46 259.369C303.533 249.956 309.342 240.98 316.515 233.041C317.579 231.84 318.67 230.585 319.161 229.03C320.006 226.247 318.261 223.765 317.797 221.091" fill="#232323"></path><path d="M723.779 153.136C711.958 153.572 700.165 154.472 688.4 155.508C671.584 157.008 654.522 158.807 639.699 167.696C635.031 170.477 631.045 173.858 627.715 178.139C624.384 182.42 621.791 187.164 616.877 189.618C613.355 191.363 609.042 191.472 605.439 189.918C601.289 188.119 598.259 184.329 596.512 180.184C595.366 177.43 594.683 174.431 595.147 171.486C595.993 166.06 600.525 161.943 605.357 159.298C616.604 153.136 628.916 150.245 640.818 145.91C653.648 141.247 666.752 137.348 680.019 134.185C706.608 127.832 733.825 124.369 761.123 123.361C783.945 122.515 805.675 122.488 827.35 130.995C852.793 140.975 877.389 166.851 861.91 195.672C856.014 206.633 844.985 213.94 833.52 218.766C811.49 228.01 787.822 234.226 764.481 239.98C749.303 243.715 734.016 247.123 718.974 251.486C712.177 253.449 703.223 254.976 697.217 258.794C692.085 262.038 689.3 268.282 687.417 273.763C685.151 280.389 682.175 286.851 679.582 293.34C678.463 296.149 677.289 299.203 677.999 302.175C678.572 304.629 680.346 306.592 682.094 308.391C700.329 327.533 724.379 340.539 745.945 355.454C759.84 365.079 773.763 374.704 787.385 384.711C796.011 391.036 855.741 438.507 864.149 445.079C871.438 450.777 881.32 455.794 886.725 463.456C891.557 470.273 891.038 477.635 885.196 484.424C877.088 493.804 865.405 492.168 857.952 485.651C847.333 476.381 836.468 467.355 825.712 458.248C814.11 448.432 750.859 398.153 739.448 388.119C725.908 376.231 712.777 363.879 699.237 351.963C693.914 347.274 688.4 342.775 682.885 338.303C679.609 335.631 671.884 326.905 667.025 328.678C664.868 329.469 663.913 331.922 663.203 334.104C658.344 349.046 652.283 364.397 651.191 380.212C650.564 389.128 649.553 395.372 639.207 396.026C628.97 396.653 620.999 392.918 617.15 383.047C612.946 372.25 614.529 361.479 619.17 351.227C624.466 339.448 629.189 327.369 634.157 315.453C636.914 308.855 639.781 302.093 635.795 295.44C633.42 291.486 629.844 288.405 626.541 285.188C622.309 281.07 616.604 275.59 620.781 269.7C626.541 261.575 636.805 257.049 645.786 253.613C666.069 245.897 674.423 224.056 680.428 204.969C682.721 197.689 685.779 190.191 684.905 182.42C684.605 179.775 683.895 177.158 683.923 174.513C683.95 171.868 684.933 169.005 687.198 167.614C688.727 166.687 690.611 166.524 692.385 166.578C702.076 166.769 713.979 172.25 718.537 181.275C723.369 190.873 715.507 201.806 712.695 210.777C712.095 212.659 711.631 214.649 711.849 216.612C712.068 218.575 713.105 220.566 714.852 221.466C716.845 222.502 719.247 221.984 721.404 221.466C742.424 216.449 763.007 210.532 783.29 203.115C797.704 197.853 811.79 191.827 825.821 185.692C828.169 184.656 830.025 183.074 831.609 181.193C833.683 178.739 832.865 174.649 829.944 171.35C821.454 161.697 802.372 159.434 790.415 157.198C775.346 154.363 760.031 153.136 744.717 152.89C737.756 152.781 730.795 152.89 723.861 153.163L723.779 153.136Z" fill="#232323"></path><path d="M1543.47 103.656C1543.09 103.547 1542.68 103.466 1542.27 103.384C1534.09 101.802 1523.78 105.238 1518.03 111.319C1509.22 120.645 1503.06 132.071 1496.73 143.251C1487.38 159.804 1477.2 176.574 1468.15 193.563C1458.99 210.77 1452.01 227.758 1446.8 246.438C1442.13 263.127 1434.85 275.643 1423.64 288.65C1410.88 303.458 1398.04 318.238 1383.86 331.708C1380.58 334.844 1376.14 338.089 1371.91 336.426C1370.3 335.799 1369.02 334.49 1368.01 333.099C1364.08 327.727 1363.59 320.283 1366.13 314.229C1369.18 306.975 1376.98 303.894 1381.67 297.895C1388.76 288.841 1394.44 278.861 1400.63 269.235C1406.11 260.672 1411.32 251.892 1416.34 243.029C1429.43 219.823 1441.29 195.908 1451.38 171.257C1455.41 161.385 1459.18 151.432 1462.59 141.342C1464.74 134.989 1466.81 128.362 1466.1 121.709C1464.52 106.574 1446.72 100.193 1433.68 104.693C1421.38 108.947 1413.09 120.536 1406.46 131.089C1398.91 143.142 1391.63 155.468 1384.48 167.766C1369.95 192.827 1355.36 218.705 1346.03 246.165C1342.13 258.245 1340 270.98 1335.37 282.815C1334.52 284.942 1333.62 287.042 1332.56 289.06C1325.99 301.576 1314.21 311.148 1302.7 318.919C1300.49 320.419 1297.87 321.919 1295.33 321.128C1292.85 320.364 1291.43 317.638 1291.38 315.047C1291.32 312.456 1292.28 309.975 1293.18 307.548C1297.92 294.622 1303.57 279.679 1299.62 265.853C1296.78 255.9 1287.45 247.174 1277.14 248.128C1270.3 248.756 1264.52 253.282 1259.2 257.618C1242.4 271.28 1225.52 284.887 1208.83 298.713C1201.77 304.548 1194.73 310.439 1187.7 316.329C1184.29 319.192 1180.8 322.028 1177.47 325C1176.38 325.982 1168.47 331.354 1168.47 332.254C1164.3 335.117 1159.66 336.89 1154.89 334.217C1152.52 332.881 1150.61 330.89 1148.7 328.927C1147.28 327.454 1145.81 325.9 1145.29 323.909C1143.87 318.483 1152.79 314.256 1156.36 312.047C1166.78 305.53 1175.61 295.74 1178.61 283.851C1181.67 271.689 1177.44 255 1164.65 250.501C1151.86 245.974 1137.49 251.755 1126.99 260.345C1115.32 269.917 1104.46 282.324 1094.86 293.941C1093.86 295.141 1090.8 300.403 1089.22 300.458C1086.11 300.567 1088.56 296.259 1089.11 294.759C1097.62 271.116 1112.45 250.555 1125.19 229.122C1139.37 205.261 1151.42 178.183 1147.88 150.641C1146.92 143.142 1143.95 134.798 1136.89 132.071C1131.43 129.971 1125.05 132.071 1120.64 135.943C1116.22 139.815 1113.41 145.106 1110.85 150.369C1096.17 180.337 1086.3 212.46 1072.01 242.593C1057.72 272.753 1038.09 301.74 1009.37 318.756C1010.46 297.54 1005.96 276.025 996.416 257.046C992.107 248.483 984.771 239.348 975.227 240.357C963.855 241.557 959.464 255.3 955.373 265.963C950.246 279.324 941.656 291.323 930.638 300.458C929.548 301.358 928.293 302.285 926.902 302.176C925.184 302.04 923.984 300.431 923.139 298.931C917.33 288.623 916.048 275.807 908.222 266.917C901.949 259.772 892.186 256.336 882.696 256.173C873.206 256.009 863.879 258.845 855.125 262.581C832.599 272.207 813.1 287.887 796.219 305.612C791.829 310.22 787.438 315.292 786.238 321.537C785.038 327.782 788.447 335.335 794.692 336.426C799.628 337.299 804.264 334.081 808.246 331.054C801.456 348.643 805.628 369.967 818.582 383.656C824.854 390.283 833.117 395.218 842.144 396.582C850.734 397.891 859.516 395.982 867.615 392.873C881.551 387.556 894.123 378.748 903.831 367.431C912.367 357.505 918.694 345.779 927.502 336.099C939.447 323.01 955.864 313.765 964.591 298.331C965.682 296.422 967.018 294.186 969.2 294.05C972.445 293.886 973.672 298.222 973.59 301.467C973.208 316.165 968.6 330.7 960.473 342.943C959.082 345.016 957.528 347.088 955.346 348.288C950.028 351.179 943.619 347.934 937.593 347.361C925.293 346.216 914.112 358.514 915.039 370.812C915.967 383.111 927.42 393.228 939.747 394.155C951.473 395.027 962.464 388.946 972.527 382.838C995.653 368.767 1018.45 353.251 1035.63 332.308C1037.57 329.936 1041.5 327.509 1043.13 330.1C1038.55 339.207 1033.8 348.97 1035.03 359.087C1036.23 369.204 1046.21 378.884 1055.92 375.803C1062.66 373.648 1066.37 366.695 1069.88 360.559C1078.01 346.379 1088.51 333.563 1100.84 322.819C1099.66 323.855 1114.83 343.816 1116.11 345.479C1126.2 358.65 1136.37 375.094 1155.46 372.012C1167.95 369.994 1176.3 361.677 1184.97 353.278C1196.23 342.371 1207.66 330.999 1220.23 321.564C1225.79 317.392 1231.36 313.111 1236.76 308.748C1242.51 304.085 1247.01 298.113 1253.47 294.295C1255.3 293.232 1257.4 292.305 1259.45 292.768C1263.62 293.723 1262.2 298.004 1261 300.649C1255.9 312.156 1252.46 325.055 1253.58 337.735C1254.13 343.898 1255.82 349.979 1259.01 355.296C1262.17 360.587 1267.19 367.84 1273.98 368.167C1277.14 368.304 1280.25 367.349 1283.2 366.231C1295.28 361.677 1305.91 354.151 1315.05 345.098C1319.63 340.571 1323.83 335.69 1327.79 330.618C1328.93 329.145 1332.78 320.746 1335.45 322.819C1336.1 323.337 1336.38 324.209 1336.51 325.028C1337.22 329.091 1336.76 332.663 1338.12 336.59C1340.93 344.716 1343.22 355.351 1349.47 361.568C1354.08 366.177 1360.89 367.976 1367.41 367.84C1375.37 367.677 1384.21 365.686 1390.81 361.159C1402.26 353.306 1412.33 343.925 1421.6 333.645C1425.8 329.009 1430.08 324.509 1435.1 320.201C1435.64 322.164 1436.05 323.8 1436.54 325.382C1439.32 334.463 1441.86 343.68 1447.34 351.642C1450.78 356.605 1455.36 360.368 1461.28 361.568C1474.86 364.295 1487.13 361.268 1497.44 351.751C1505.48 344.307 1513.77 337.162 1520.59 328.409C1526.24 321.183 1532.54 314.502 1537.77 306.894C1541.21 301.876 1542.46 296.095 1541.24 290.15C1540.5 286.605 1537.96 276.407 1532.84 277.525C1531.36 277.852 1530.11 278.834 1528.96 279.843C1521.22 286.605 1515.22 294.704 1508.54 302.394C1501.86 310.084 1494.6 317.801 1487.73 325.573C1485.28 328.354 1482.66 331.245 1479.14 332.527C1476.58 333.454 1473.5 333.317 1471.4 331.599C1465.26 326.609 1464.8 310.766 1468.75 304.576C1472 299.504 1478.38 298.222 1481.73 293.15C1485.41 287.587 1488.99 281.997 1492.48 276.325C1499.43 265.008 1506 253.446 1512.19 241.693C1524.55 218.16 1535.29 193.781 1544.4 168.802C1545.03 167.057 1545.68 165.285 1546.28 163.54C1550.73 150.941 1555.42 138.097 1558.5 125.09C1561.04 114.51 1553.62 106.083 1543.5 103.547L1543.47 103.656ZM1437.5 140.852C1438.45 144.615 1437.58 147.914 1436.76 151.159C1433.33 165.039 1427.35 177.91 1420.89 190.591C1409.54 212.897 1396.7 234.276 1380.8 253.664C1377.96 257.127 1374.97 260.454 1370.93 263.999C1385.38 218.269 1410.36 179.247 1437.47 140.852H1437.5ZM895.459 320.474C895.295 339.317 879.942 361.459 863.252 369.858C857.934 372.53 851.116 373.758 846.262 370.322C843.453 368.331 841.762 365.086 840.971 361.732C836.281 341.798 849.071 318.347 863.224 305.203C867.888 300.867 873.724 297.54 880.051 297.077C889.05 296.395 893.713 306.839 894.968 314.202C895.322 316.274 895.486 318.401 895.459 320.501V320.474ZM1117.69 306.075C1120.77 301.194 1125.24 297.949 1130.54 295.713C1126.25 299.176 1121.97 302.612 1117.69 306.075ZM1531.01 161.085C1523.59 182.273 1512.14 201.335 1499.98 220.041C1492.42 231.685 1484.84 243.329 1477.29 254.973C1477.07 255.3 1476.8 255.628 1476.09 256.527C1476.82 248.238 1479.19 241.148 1481.92 234.194C1492.12 208.097 1506.41 184.21 1521.63 160.813C1526.43 153.423 1531.47 146.196 1536.68 139.052C1535.7 146.687 1533.55 153.941 1531.04 161.085H1531.01Z" fill="#232323"></path></g><defs><clipPath id="clip0_1_3"><rect width="1512" height="651" fill="white"></rect></clipPath></defs></svg> 