<svg xmlns="http://www.w3.org/2000/svg" width="33" height="33" fill="none"><g clip-path="url(#a)"><path d="m23.043 5.877-2.174-.727v-.186a1.333 1.333 0 0 0-1.333-1.334h-1.334a1.333 1.333 0 0 0-1.333 1.334v.186L2.696 9.877a2.666 2.666 0 0 0-1.827 2.527v7.786a2.667 2.667 0 0 0 1.827 2.527l14.173 4.727v.186a1.333 1.333 0 0 0 1.334 1.334h1.333a1.333 1.333 0 0 0 1.333-1.334v-.186l2.174-.727a2.667 2.667 0 0 0 1.826-2.527V8.404a2.666 2.666 0 0 0-1.826-2.527zM3.116 21.45a1.334 1.334 0 0 1-.914-1.26v-7.786a1.334 1.334 0 0 1 .914-1.26l13.753-4.587v19.48L3.116 21.45zm15.087 6.18V4.964h1.333V27.63h-1.334zm5.333-3.44a1.332 1.332 0 0 1-.914 1.26l-1.753.587V6.557l1.753.587a1.333 1.333 0 0 1 .914 1.26V24.19z" fill="#000"/><path d="M30.87 11.63c-.154 0 .152.087-4.214-1.366a.67.67 0 0 1 .426-1.267l4 1.333a.667.667 0 0 1-.213 1.3zM30.87 15.63c-.154 0 .152.087-4.214-1.366a.67.67 0 0 1 .426-1.267l4 1.333a.667.667 0 0 1-.213 1.3zM30.87 19.63c-.154 0 .152.087-4.214-1.366a.67.67 0 0 1 .426-1.267l4 1.333a.667.667 0 0 1-.213 1.3zM30.87 23.63c-.154 0 .152.087-4.214-1.333a.668.668 0 1 1 .426-1.267l4 1.334a.667.667 0 0 1-.213 1.266z" fill="#F9D718"/></g><defs><clipPath id="a"><path fill="#fff" transform="translate(.203 .297)" d="M0 0h32v32H0z"/></clipPath></defs></svg>