<?xml version="1.0" encoding="UTF-8"?>
<svg xmlns="http://www.w3.org/2000/svg" width="590" height="180" viewBox="0 0 590 180" fill="none">
  <path d="M131.773 43.9008C130.173 45.5508 128.233 46.6908 126.403 48.0708C123.323 50.3808 120.543 53.2908 117.933 56.1108C116.093 58.1008 114.273 60.0808 112.303 61.9308C104.543 69.2108 99.0827 78.8008 92.7027 87.2308C91.8627 88.3408 91.0427 89.4808 90.0127 90.4408C88.8427 91.5208 87.5327 92.3608 85.9627 92.6708C81.6027 93.5208 79.1727 91.1508 78.4227 86.9408C77.9727 84.4308 79.0727 81.5008 79.7127 79.1008C81.9527 70.6308 86.1527 63.1908 89.3727 55.1108C89.5127 54.7508 89.6527 54.3408 89.4527 54.0508C89.2127 53.7208 88.7627 53.9108 88.4227 53.9908C87.6927 54.1708 87.0327 54.5008 86.4427 54.9608C79.8927 60.1408 73.3827 65.3608 67.4327 71.2508C59.7627 78.8308 53.2027 87.2908 47.2527 96.2608C43.7127 101.601 40.0927 106.901 36.4627 112.181C34.6527 114.811 31.0727 118.731 27.5227 118.351C25.3727 118.121 23.5527 116.671 22.2927 114.991C20.9727 113.231 20.8727 111.191 21.1627 109.071C22.0627 102.561 24.9227 96.4108 27.6627 90.5108C31.3827 82.5108 35.8027 74.8608 39.4927 66.8508C41.5827 62.3108 43.4427 57.6708 45.8727 53.2908C46.4727 52.2108 46.9327 51.0608 47.0527 49.8108C47.2027 48.2708 46.4527 47.6908 45.0527 48.3608C42.6527 49.5108 40.2527 50.6908 37.9127 51.9608C31.0927 55.6708 24.2827 59.3908 18.0127 64.0008C15.6827 65.7208 13.6827 67.7908 12.1327 70.2608C11.2027 71.7508 9.99271 72.7608 8.22271 73.2108C4.90271 74.0508 2.80271 72.6408 0.752712 69.2108C-0.707288 66.7808 0.00271201 64.0708 2.48271 61.9708C4.94271 59.8808 7.82271 58.4008 10.7227 57.0808C19.2127 53.2108 27.1027 48.2608 35.2627 43.7908C40.2927 41.0408 45.6327 39.0708 51.3427 38.2108C55.0727 37.6508 58.6227 37.8808 61.3027 40.9808C64.1027 44.2208 64.5227 47.9308 62.9727 51.8208C61.1727 56.3208 58.7327 60.5208 56.4127 64.7608C54.5227 68.2108 52.6227 71.6608 50.7327 75.1208C50.4527 75.6408 50.2027 76.1908 50.0327 76.7708C53.2427 74.2108 55.9527 71.1708 58.3427 67.9008C63.0527 61.4708 68.3927 55.6208 74.0727 50.0508C78.7227 45.4908 83.6027 41.2108 88.9827 37.5208C92.2027 35.3108 95.6427 33.9608 99.6427 34.8408C104.413 35.8808 107.273 39.6408 106.913 44.5108C106.623 48.3108 106.413 52.1208 105.063 55.7708C105.193 55.7708 105.303 55.8008 105.323 55.7708C110.303 49.3308 116.473 44.0508 122.203 38.3408C126.283 34.2708 130.653 30.6708 136.093 28.5608C138.673 27.5608 141.293 26.9608 143.993 28.0808C146.213 29.0008 147.623 30.7608 148.593 32.8508C150.103 36.1008 150.433 39.7408 149.803 43.2508C149.483 45.0308 149.063 46.8308 148.353 48.5008C147.993 49.3408 147.563 50.1708 146.963 50.8808C146.433 51.5108 145.263 51.8808 145.363 52.8508C146.123 52.2608 146.903 51.6808 147.733 51.2008C150.463 49.6308 153.663 49.1708 156.653 48.2008C163.053 46.1308 168.623 41.5608 171.903 35.6908C172.853 33.9908 173.723 32.0808 175.443 31.1908C177.363 30.2008 179.863 30.8808 181.333 32.4608C182.803 34.0408 183.333 36.3308 183.173 38.4808C183.033 40.2808 182.353 42.0808 180.773 43.0908C182.293 42.3308 184.763 42.3108 186.443 41.9808C188.433 41.5908 190.433 41.2008 192.423 40.8108C196.513 40.0108 200.613 39.2108 204.703 38.4108C212.543 36.8808 220.363 35.4408 228.283 34.3908C233.153 33.7408 240.133 31.1308 243.683 36.0308C245.343 38.3208 246.333 43.7908 243.533 45.7308C242.693 46.3108 241.613 46.3808 240.603 46.4308C232.453 46.8708 224.303 47.8008 216.273 49.3108C209.863 50.5208 203.453 51.4708 197.013 52.4008C191.163 53.2408 185.533 54.9008 179.803 56.4308C178.403 56.8008 176.993 57.1808 175.743 57.9108C172.663 59.6908 171.163 62.9708 169.353 65.8808C166.693 70.1608 164.163 74.5308 161.923 79.0408C159.683 83.5508 157.403 88.1108 155.583 92.7808C155.183 93.8008 154.793 94.8708 154.893 95.9608C155.013 97.3708 156.323 98.7408 157.803 98.5708C158.403 98.5008 158.943 98.2108 159.473 97.9208C164.003 95.4508 168.543 92.9708 172.683 89.9108C175.763 87.6308 178.593 85.0408 181.423 82.4608C182.293 81.6708 183.193 80.8508 184.293 80.4608C187.333 79.3808 188.923 82.3408 189.313 84.8508C189.583 86.5608 189.213 88.2408 188.383 89.7408C185.533 94.8708 181.953 99.6408 177.393 103.381C173.403 106.651 168.723 108.801 163.903 110.551C161.643 111.371 159.223 111.931 156.833 111.651C151.753 111.071 147.863 106.511 145.863 102.101C143.733 97.4208 143.293 92.0008 144.383 86.9908C145.173 83.3708 146.893 80.0608 148.713 76.8608C151.363 72.2008 153.823 67.4408 156.183 62.6308C156.563 61.8608 156.013 61.3408 155.203 61.6008C150.663 63.0608 146.003 63.7308 141.253 63.8308C139.653 63.8608 138.573 66.9508 137.883 68.1608C136.843 69.9908 135.863 71.8508 134.933 73.7308C133.073 77.5008 131.443 81.3808 130.033 85.3408C129.203 87.6708 128.453 90.0508 128.203 92.5108C127.953 94.9708 128.203 97.5308 129.323 99.7408C129.993 101.051 130.963 102.291 131.043 103.761C131.113 104.981 130.513 106.171 129.663 107.061C128.733 108.031 127.443 108.711 126.093 108.751C124.873 108.791 123.693 108.321 122.603 107.751C120.633 106.731 118.843 105.361 117.373 103.701C114.513 100.481 112.923 96.1608 113.013 91.8508C113.103 87.7208 114.713 83.8908 116.363 80.1708C119.773 72.4808 123.033 64.7108 127.033 57.3008C128.893 53.8508 131.023 50.5608 133.653 47.6508C134.043 47.2108 134.443 46.7508 134.623 46.1808C134.933 45.1608 134.293 44.2508 134.123 43.2708" fill="#231F20"></path>
  <path d="M283.173 18.5507C278.843 18.7107 274.523 19.0407 270.213 19.4207C264.053 19.9707 257.803 20.6307 252.373 23.8907C250.663 24.9107 249.203 26.1507 247.983 27.7207C246.763 29.2907 245.813 31.0307 244.013 31.9307C242.723 32.5707 241.143 32.6107 239.823 32.0407C238.303 31.3807 237.193 29.9907 236.553 28.4707C236.133 27.4607 235.883 26.3607 236.053 25.2807C236.363 23.2907 238.023 21.7807 239.793 20.8107C243.913 18.5507 248.423 17.4907 252.783 15.9007C257.483 14.1907 262.283 12.7607 267.143 11.6007C276.883 9.27072 286.853 8.00072 296.853 7.63072C305.213 7.32072 313.173 7.31072 321.113 10.4307C330.433 14.0907 339.443 23.5807 333.773 34.1507C331.613 38.1707 327.573 40.8507 323.373 42.6207C315.303 46.0107 306.633 48.2907 298.083 50.4007C292.523 51.7707 286.923 53.0207 281.413 54.6207C278.923 55.3407 275.643 55.9007 273.443 57.3007C271.563 58.4907 270.543 60.7807 269.853 62.7907C269.023 65.2207 267.933 67.5907 266.983 69.9707C266.573 71.0007 266.143 72.1207 266.403 73.2107C266.613 74.1107 267.263 74.8307 267.903 75.4907C274.583 82.5107 283.393 87.2807 291.293 92.7507C296.383 96.2807 301.483 99.8107 306.473 103.481C309.633 105.801 331.513 123.211 334.593 125.621C337.263 127.711 340.883 129.551 342.863 132.361C344.633 134.861 344.443 137.561 342.303 140.051C339.333 143.491 335.053 142.891 332.323 140.501C328.433 137.101 324.453 133.791 320.513 130.451C316.263 126.851 293.093 108.411 288.913 104.731C283.953 100.371 279.143 95.8407 274.183 91.4707C272.233 89.7507 270.213 88.1007 268.193 86.4607C266.993 85.4807 264.163 82.2807 262.383 82.9307C261.593 83.2207 261.243 84.1207 260.983 84.9207C259.203 90.4007 256.983 96.0307 256.583 101.831C256.353 105.101 255.983 107.391 252.193 107.631C248.443 107.861 245.523 106.491 244.113 102.871C242.573 98.9107 243.153 94.9607 244.853 91.2007C246.793 86.8807 248.523 82.4507 250.343 78.0807C251.353 75.6607 252.403 73.1807 250.943 70.7407C250.073 69.2907 248.763 68.1607 247.553 66.9807C246.003 65.4707 243.913 63.4607 245.443 61.3007C247.553 58.3207 251.313 56.6607 254.603 55.4007C262.033 52.5707 265.093 44.5607 267.293 37.5607C268.133 34.8907 269.253 32.1407 268.933 29.2907C268.823 28.3207 268.563 27.3607 268.573 26.3907C268.583 25.4207 268.943 24.3707 269.773 23.8607C270.333 23.5207 271.023 23.4607 271.673 23.4807C275.223 23.5507 279.583 25.5607 281.253 28.8707C283.023 32.3907 280.143 36.4007 279.113 39.6907C278.893 40.3807 278.723 41.1107 278.803 41.8307C278.883 42.5507 279.263 43.2807 279.903 43.6107C280.633 43.9907 281.513 43.8007 282.303 43.6107C290.003 41.7707 297.543 39.6007 304.973 36.8807C310.253 34.9507 315.413 32.7407 320.553 30.4907C321.413 30.1107 322.093 29.5307 322.673 28.8407C323.433 27.9407 323.133 26.4407 322.063 25.2307C318.953 21.6907 311.963 20.8607 307.583 20.0407C302.063 19.0007 296.453 18.5507 290.843 18.4607C288.293 18.4207 285.743 18.4607 283.203 18.5607L283.173 18.5507Z" fill="#231F20"></path>
  <path d="M504.433 32.0907C504.383 35.4407 501.473 39.7007 497.673 38.7607C496.473 38.4607 495.463 37.6107 494.773 36.5907C493.333 34.4707 492.723 31.4207 493.423 28.9307C494.323 25.7407 497.453 24.6507 500.383 25.9007C503.033 27.0307 504.473 29.4607 504.433 32.0807V32.0907Z" fill="#231F20"></path>
  <path d="M583.553 0.240732C583.413 0.200732 583.263 0.170732 583.113 0.140732C580.113 -0.439268 576.333 0.820732 574.223 3.05073C570.993 6.47073 568.733 10.6607 566.413 14.7607C562.983 20.8307 559.253 26.9807 555.933 33.2107C552.573 39.5207 550.013 45.7507 548.103 52.6007C546.393 58.7207 543.723 63.3107 539.613 68.0807C534.933 73.5107 530.223 78.9307 525.023 83.8707C523.823 85.0207 522.193 86.2107 520.643 85.6007C520.053 85.3707 519.583 84.8907 519.213 84.3807C517.773 82.4107 517.593 79.6807 518.523 77.4607C519.643 74.8007 522.503 73.6707 524.223 71.4707C526.823 68.1507 528.903 64.4907 531.173 60.9607C533.183 57.8207 535.093 54.6007 536.933 51.3507C541.733 42.8407 546.083 34.0707 549.783 25.0307C551.263 21.4107 552.643 17.7607 553.893 14.0607C554.683 11.7307 555.443 9.30073 555.183 6.86073C554.603 1.31073 548.073 -1.02927 543.293 0.620732C538.783 2.18073 535.743 6.43073 533.313 10.3007C530.543 14.7207 527.873 19.2407 525.253 23.7507C519.923 32.9407 514.573 42.4307 511.153 52.5007C509.723 56.9307 508.943 61.6007 507.243 65.9407C506.933 66.7207 506.603 67.4907 506.213 68.2307C503.803 72.8207 499.483 76.3307 495.263 79.1807C494.453 79.7307 493.493 80.2807 492.563 79.9907C491.653 79.7107 491.133 78.7107 491.113 77.7607C491.093 76.8107 491.443 75.9007 491.773 75.0107C493.513 70.2707 495.583 64.7907 494.133 59.7207C493.093 56.0707 489.673 52.8707 485.893 53.2207C483.383 53.4507 481.263 55.1107 479.313 56.7007C473.153 61.7107 466.963 66.7007 460.843 71.7707C458.253 73.9107 455.673 76.0707 453.093 78.2307C451.843 79.2807 450.563 80.3207 449.343 81.4107C448.943 81.7707 446.043 83.7407 446.043 84.0707C444.513 85.1207 442.813 85.7707 441.063 84.7907C440.193 84.3007 439.493 83.5707 438.793 82.8507C438.273 82.3107 437.733 81.7407 437.543 81.0107C437.023 79.0207 440.293 77.4707 441.603 76.6607C445.423 74.2707 448.663 70.6807 449.763 66.3207C450.883 61.8607 449.333 55.7407 444.643 54.0907C439.953 52.4307 434.683 54.5507 430.833 57.7007C426.553 61.2107 422.573 65.7607 419.053 70.0207C418.683 70.4607 417.563 72.3907 416.983 72.4107C415.843 72.4507 416.743 70.8707 416.943 70.3207C420.063 61.6507 425.503 54.1107 430.173 46.2507C435.373 37.5007 439.793 27.5707 438.493 17.4707C438.143 14.7207 437.053 11.6607 434.463 10.6607C432.463 9.89073 430.123 10.6607 428.503 12.0807C426.883 13.5007 425.853 15.4407 424.913 17.3707C419.533 28.3607 415.913 40.1407 410.673 51.1907C405.433 62.2507 398.233 72.8807 387.703 79.1207C388.103 71.3407 386.453 63.4507 382.953 56.4907C381.373 53.3507 378.683 50.0007 375.183 50.3707C371.013 50.8107 369.403 55.8507 367.903 59.7607C366.023 64.6607 362.873 69.0607 358.833 72.4107C358.433 72.7407 357.973 73.0807 357.463 73.0407C356.833 72.9907 356.393 72.4007 356.083 71.8507C353.953 68.0707 353.483 63.3707 350.613 60.1107C348.313 57.4907 344.733 56.2307 341.253 56.1707C337.773 56.1107 334.353 57.1507 331.143 58.5207C322.883 62.0507 315.733 67.8007 309.543 74.3007C307.933 75.9907 306.323 77.8507 305.883 80.1407C305.443 82.4307 306.693 85.2007 308.983 85.6007C310.793 85.9207 312.493 84.7407 313.953 83.6307C311.463 90.0807 312.993 97.9007 317.743 102.921C320.043 105.351 323.073 107.161 326.383 107.661C329.533 108.141 332.753 107.441 335.723 106.301C340.833 104.351 345.443 101.121 349.003 96.9707C352.133 93.3307 354.453 89.0307 357.683 85.4807C362.063 80.6807 368.083 77.2907 371.283 71.6307C371.683 70.9307 372.173 70.1107 372.973 70.0607C374.163 70.0007 374.613 71.5907 374.583 72.7807C374.443 78.1707 372.753 83.5007 369.773 87.9907C369.263 88.7507 368.693 89.5107 367.893 89.9507C365.943 91.0107 363.593 89.8207 361.383 89.6107C356.873 89.1907 352.773 93.7007 353.113 98.2107C353.453 102.721 357.653 106.431 362.173 106.771C366.473 107.091 370.503 104.861 374.193 102.621C382.673 97.4607 391.033 91.7707 397.333 84.0907C398.043 83.2207 399.483 82.3307 400.083 83.2807C398.403 86.6207 396.663 90.2007 397.113 93.9107C397.553 97.6207 401.213 101.171 404.773 100.041C407.243 99.2507 408.603 96.7007 409.893 94.4507C412.873 89.2507 416.723 84.5507 421.243 80.6107C420.813 80.9907 426.373 88.3107 426.843 88.9207C430.543 93.7507 434.273 99.7807 441.273 98.6507C445.853 97.9107 448.913 94.8607 452.093 91.7807C456.223 87.7807 460.413 83.6107 465.023 80.1507C467.063 78.6207 469.103 77.0507 471.083 75.4507C473.193 73.7407 474.843 71.5507 477.213 70.1507C477.883 69.7607 478.653 69.4207 479.403 69.5907C480.933 69.9407 480.413 71.5107 479.973 72.4807C478.103 76.7007 476.843 81.4307 477.253 86.0807C477.453 88.3407 478.073 90.5707 479.243 92.5207C480.403 94.4607 482.243 97.1207 484.733 97.2407C485.893 97.2907 487.033 96.9407 488.113 96.5307C492.543 94.8607 496.443 92.1007 499.793 88.7807C501.473 87.1207 503.013 85.3307 504.463 83.4707C504.883 82.9307 506.293 79.8507 507.273 80.6107C507.513 80.8007 507.613 81.1207 507.663 81.4207C507.923 82.9107 507.753 84.2207 508.253 85.6607C509.283 88.6407 510.123 92.5407 512.413 94.8207C514.103 96.5107 516.603 97.1707 518.993 97.1207C521.913 97.0607 525.153 96.3307 527.573 94.6707C531.773 91.7907 535.463 88.3507 538.863 84.5807C540.403 82.8807 541.973 81.2307 543.813 79.6507C544.013 80.3707 544.163 80.9707 544.343 81.5507C545.363 84.8807 546.293 88.2607 548.303 91.1807C549.563 93.0007 551.243 94.3807 553.413 94.8207C558.393 95.8207 562.893 94.7107 566.673 91.2207C569.623 88.4907 572.663 85.8707 575.163 82.6607C577.233 80.0107 579.543 77.5607 581.463 74.7707C582.723 72.9307 583.183 70.8107 582.733 68.6307C582.463 67.3307 581.533 63.5907 579.653 64.0007C579.113 64.1207 578.653 64.4807 578.233 64.8507C575.393 67.3307 573.193 70.3007 570.743 73.1207C568.293 75.9407 565.633 78.7707 563.113 81.6207C562.213 82.6407 561.253 83.7007 559.963 84.1707C559.023 84.5107 557.893 84.4607 557.123 83.8307C554.873 82.0007 554.703 76.1907 556.153 73.9207C557.343 72.0607 559.683 71.5907 560.913 69.7307C562.263 67.6907 563.573 65.6407 564.853 63.5607C567.403 59.4107 569.813 55.1707 572.083 50.8607C576.613 42.2307 580.553 33.2907 583.893 24.1307C584.123 23.4907 584.363 22.8407 584.583 22.2007C586.213 17.5807 587.933 12.8707 589.063 8.10073C589.993 4.22073 587.273 1.13073 583.563 0.200732L583.553 0.240732ZM544.693 13.8807C545.043 15.2607 544.723 16.4707 544.423 17.6607C543.163 22.7507 540.973 27.4707 538.603 32.1207C534.443 40.3007 529.733 48.1407 523.903 55.2507C522.863 56.5207 521.763 57.7407 520.283 59.0407C525.583 42.2707 534.743 27.9607 544.683 13.8807H544.693ZM345.933 79.7507C345.873 86.6607 340.243 94.7807 334.123 97.8607C332.173 98.8407 329.673 99.2907 327.893 98.0307C326.863 97.3007 326.243 96.1107 325.953 94.8807C324.233 87.5707 328.923 78.9707 334.113 74.1507C335.823 72.5607 337.963 71.3407 340.283 71.1707C343.583 70.9207 345.293 74.7507 345.753 77.4507C345.883 78.2107 345.943 78.9907 345.933 79.7607V79.7507ZM427.423 74.4707C428.553 72.6807 430.193 71.4907 432.133 70.6707C430.563 71.9407 428.993 73.2007 427.423 74.4707ZM578.983 21.3007C576.263 29.0707 572.063 36.0607 567.603 42.9207C564.833 47.1907 562.053 51.4607 559.283 55.7307C559.203 55.8507 559.103 55.9707 558.843 56.3007C559.113 53.2607 559.983 50.6607 560.983 48.1107C564.723 38.5407 569.963 29.7807 575.543 21.2007C577.303 18.4907 579.153 15.8407 581.063 13.2207C580.703 16.0207 579.913 18.6807 578.993 21.3007H578.983Z" fill="#231F20"></path>
  <path d="M25.3876 178.396C23.3126 178.396 21.5277 177.957 20.033 177.078C18.5471 176.19 17.4041 174.959 16.604 173.385C15.8127 171.811 15.4171 170 15.4171 167.951C15.4171 165.876 15.8171 164.056 16.6172 162.491C17.4261 160.917 18.5735 159.691 20.0594 158.812C21.5453 157.924 23.3126 157.48 25.3612 157.48C27.1284 157.48 28.6759 157.8 30.0035 158.442C31.3312 159.084 32.3818 159.985 33.1556 161.146C33.9293 162.306 34.3557 163.669 34.4348 165.234H29.1331C28.9836 164.223 28.588 163.41 27.9461 162.794C27.3131 162.17 26.4822 161.858 25.4535 161.858C24.5831 161.858 23.8225 162.095 23.1719 162.57C22.5301 163.036 22.0289 163.718 21.6684 164.614C21.3079 165.511 21.1277 166.597 21.1277 167.872C21.1277 169.164 21.3035 170.264 21.6552 171.169C22.0157 172.075 22.5213 172.765 23.1719 173.24C23.8225 173.715 24.5831 173.952 25.4535 173.952C26.0953 173.952 26.6712 173.82 27.1812 173.556C27.6999 173.292 28.1264 172.91 28.4605 172.409C28.8034 171.899 29.0276 171.288 29.1331 170.576H34.4348C34.3469 172.123 33.9249 173.486 33.1687 174.664C32.4214 175.833 31.3883 176.748 30.0695 177.407C28.7506 178.067 27.19 178.396 25.3876 178.396Z" fill="#F9D718"></path>
  <path d="M54.7982 178.396C52.7496 178.396 50.978 177.961 49.4833 177.091C47.9974 176.212 46.85 174.989 46.0411 173.424C45.2322 171.851 44.8277 170.026 44.8277 167.951C44.8277 165.859 45.2322 164.03 46.0411 162.465C46.85 160.891 47.9974 159.669 49.4833 158.798C50.978 157.919 52.7496 157.48 54.7982 157.48C56.8468 157.48 58.6141 157.919 60.1 158.798C61.5947 159.669 62.7464 160.891 63.5553 162.465C64.3642 164.03 64.7687 165.859 64.7687 167.951C64.7687 170.026 64.3642 171.851 63.5553 173.424C62.7464 174.989 61.5947 176.212 60.1 177.091C58.6141 177.961 56.8468 178.396 54.7982 178.396ZM54.8246 174.044C55.7566 174.044 56.5347 173.78 57.1589 173.253C57.7832 172.717 58.2536 171.987 58.5701 171.064C58.8954 170.14 59.0581 169.09 59.0581 167.912C59.0581 166.733 58.8954 165.683 58.5701 164.76C58.2536 163.836 57.7832 163.107 57.1589 162.57C56.5347 162.034 55.7566 161.766 54.8246 161.766C53.8838 161.766 53.0925 162.034 52.4507 162.57C51.8176 163.107 51.3384 163.836 51.0131 164.76C50.6966 165.683 50.5383 166.733 50.5383 167.912C50.5383 169.09 50.6966 170.14 51.0131 171.064C51.3384 171.987 51.8176 172.717 52.4507 173.253C53.0925 173.78 53.8838 174.044 54.8246 174.044Z" fill="#F9D718"></path>
  <path d="M81.6536 150.991V178.001H76.0353V150.991H81.6536Z" fill="#F9D718"></path>
  <path d="M99.3859 150.991V178.001H93.7676V150.991H99.3859Z" fill="#F9D718"></path>
  <path d="M111.5 178.001V157.743H117.118V178.001H111.5ZM114.322 155.132C113.487 155.132 112.77 154.855 112.172 154.301C111.583 153.738 111.289 153.066 111.289 152.283C111.289 151.51 111.583 150.846 112.172 150.292C112.77 149.729 113.487 149.448 114.322 149.448C115.157 149.448 115.87 149.729 116.459 150.292C117.057 150.846 117.356 151.51 117.356 152.283C117.356 153.066 117.057 153.738 116.459 154.301C115.87 154.855 115.157 155.132 114.322 155.132Z" fill="#F9D718"></path>
  <path d="M146.087 163.52L140.943 163.836C140.856 163.397 140.667 163.001 140.376 162.649C140.086 162.289 139.704 162.003 139.229 161.792C138.763 161.572 138.205 161.462 137.554 161.462C136.684 161.462 135.949 161.647 135.352 162.016C134.754 162.377 134.455 162.86 134.455 163.467C134.455 163.951 134.648 164.36 135.035 164.694C135.422 165.028 136.086 165.296 137.027 165.498L140.693 166.237C142.662 166.641 144.131 167.292 145.098 168.189C146.065 169.085 146.549 170.264 146.549 171.723C146.549 173.051 146.157 174.216 145.375 175.218C144.601 176.22 143.537 177.003 142.183 177.566C140.838 178.119 139.286 178.396 137.528 178.396C134.846 178.396 132.709 177.838 131.118 176.721C129.535 175.596 128.608 174.066 128.335 172.132L133.861 171.842C134.028 172.659 134.433 173.284 135.075 173.715C135.716 174.137 136.539 174.348 137.541 174.348C138.526 174.348 139.317 174.159 139.915 173.78C140.521 173.394 140.829 172.897 140.838 172.29C140.829 171.78 140.614 171.363 140.192 171.037C139.77 170.703 139.119 170.448 138.24 170.272L134.732 169.573C132.753 169.178 131.281 168.492 130.314 167.516C129.355 166.54 128.876 165.296 128.876 163.784C128.876 162.482 129.228 161.361 129.931 160.421C130.643 159.48 131.641 158.754 132.925 158.244C134.217 157.735 135.73 157.48 137.462 157.48C140.02 157.48 142.034 158.02 143.502 159.102C144.979 160.183 145.841 161.656 146.087 163.52Z" fill="#F9D718"></path>
  <path d="M157.7 178.001V157.743H163.318V178.001H157.7ZM160.522 155.132C159.687 155.132 158.97 154.855 158.372 154.301C157.783 153.738 157.489 153.066 157.489 152.283C157.489 151.51 157.783 150.846 158.372 150.292C158.97 149.729 159.687 149.448 160.522 149.448C161.357 149.448 162.07 149.729 162.659 150.292C163.257 150.846 163.555 151.51 163.555 152.283C163.555 153.066 163.257 153.738 162.659 154.301C162.07 154.855 161.357 155.132 160.522 155.132Z" fill="#F9D718"></path>
  <path d="M184.585 178.396C182.536 178.396 180.765 177.961 179.27 177.091C177.784 176.212 176.637 174.989 175.828 173.424C175.019 171.851 174.614 170.026 174.614 167.951C174.614 165.859 175.019 164.03 175.828 162.465C176.637 160.891 177.784 159.669 179.27 158.798C180.765 157.919 182.536 157.48 184.585 157.48C186.633 157.48 188.401 157.919 189.887 158.798C191.381 159.669 192.533 160.891 193.342 162.465C194.151 164.03 194.555 165.859 194.555 167.951C194.555 170.026 194.151 171.851 193.342 173.424C192.533 174.989 191.381 176.212 189.887 177.091C188.401 177.961 186.633 178.396 184.585 178.396ZM184.611 174.044C185.543 174.044 186.321 173.78 186.946 173.253C187.57 172.717 188.04 171.987 188.357 171.064C188.682 170.14 188.845 169.09 188.845 167.912C188.845 166.733 188.682 165.683 188.357 164.76C188.04 163.836 187.57 163.107 186.946 162.57C186.321 162.034 185.543 161.766 184.611 161.766C183.67 161.766 182.879 162.034 182.237 162.57C181.604 163.107 181.125 163.836 180.8 164.76C180.483 165.683 180.325 166.733 180.325 167.912C180.325 169.09 180.483 170.14 180.8 171.064C181.125 171.987 181.604 172.717 182.237 173.253C182.879 173.78 183.67 174.044 184.611 174.044Z" fill="#F9D718"></path>
  <path d="M211.44 166.289V178.001H205.822V157.743H211.177V161.317H211.414C211.862 160.139 212.614 159.207 213.669 158.521C214.724 157.827 216.003 157.48 217.507 157.48C218.914 157.48 220.14 157.787 221.187 158.403C222.233 159.018 223.046 159.897 223.626 161.04C224.207 162.175 224.497 163.529 224.497 165.102V178.001H218.879V166.105C218.887 164.865 218.571 163.898 217.929 163.203C217.287 162.5 216.404 162.148 215.278 162.148C214.522 162.148 213.854 162.311 213.273 162.636C212.702 162.962 212.254 163.436 211.928 164.061C211.612 164.676 211.449 165.419 211.44 166.289Z" fill="#F9D718"></path>
  <path d="M262.034 179.949C260.17 179.949 258.561 179.615 257.207 178.946C255.853 178.278 254.811 177.373 254.081 176.23C253.36 175.078 253 173.794 253 172.378C253 171.323 253.211 170.387 253.633 169.569C254.055 168.752 254.644 168 255.4 167.314C256.156 166.62 257.036 165.929 258.038 165.244L263.274 161.801C263.951 161.371 264.448 160.918 264.764 160.443C265.081 159.959 265.239 159.436 265.239 158.874C265.239 158.337 265.023 157.84 264.593 157.383C264.162 156.926 263.551 156.702 262.759 156.711C262.232 156.711 261.775 156.829 261.388 157.067C261.001 157.295 260.698 157.599 260.478 157.977C260.267 158.346 260.161 158.759 260.161 159.216C260.161 159.779 260.32 160.351 260.636 160.931C260.953 161.511 261.375 162.127 261.902 162.777C262.43 163.419 263.006 164.114 263.63 164.861L276.436 179.553H270.58L259.898 167.657C259.194 166.857 258.491 166.022 257.787 165.151C257.093 164.272 256.513 163.34 256.047 162.355C255.581 161.362 255.348 160.285 255.348 159.124C255.348 157.814 255.651 156.636 256.258 155.59C256.873 154.543 257.735 153.717 258.842 153.11C259.95 152.495 261.243 152.187 262.72 152.187C264.162 152.187 265.406 152.482 266.452 153.071C267.507 153.651 268.316 154.425 268.879 155.392C269.45 156.35 269.736 157.405 269.736 158.557C269.736 159.832 269.42 160.988 268.787 162.026C268.162 163.054 267.283 163.977 266.149 164.795L260.636 168.765C259.889 169.31 259.335 169.868 258.974 170.44C258.623 171.002 258.447 171.543 258.447 172.062C258.447 172.704 258.605 173.28 258.922 173.79C259.238 174.3 259.687 174.704 260.267 175.003C260.847 175.293 261.529 175.438 262.311 175.438C263.261 175.438 264.197 175.223 265.12 174.792C266.052 174.352 266.896 173.733 267.652 172.932C268.417 172.124 269.028 171.165 269.486 170.057C269.943 168.949 270.171 167.723 270.171 166.378H274.827C274.827 168.031 274.647 169.521 274.286 170.849C273.926 172.167 273.425 173.319 272.783 174.304C272.141 175.28 271.407 176.08 270.58 176.704C270.316 176.871 270.061 177.03 269.815 177.179C269.569 177.329 269.314 177.487 269.05 177.654C268.048 178.463 266.927 179.047 265.687 179.408C264.456 179.768 263.239 179.949 262.034 179.949Z" fill="#838383"></path>
  <path d="M302.599 179.553V159.296H307.954V162.87H308.191C308.613 161.683 309.317 160.746 310.301 160.06C311.286 159.375 312.464 159.032 313.836 159.032C315.225 159.032 316.408 159.379 317.384 160.074C318.359 160.759 319.01 161.691 319.335 162.87H319.546C319.96 161.709 320.707 160.781 321.788 160.087C322.879 159.383 324.167 159.032 325.653 159.032C327.543 159.032 329.077 159.634 330.255 160.839C331.442 162.034 332.036 163.731 332.036 165.929V179.553H326.431V167.037C326.431 165.912 326.132 165.068 325.534 164.505C324.936 163.942 324.189 163.661 323.292 163.661C322.272 163.661 321.476 163.986 320.905 164.637C320.333 165.279 320.048 166.127 320.048 167.182V179.553H314.601V166.918C314.601 165.925 314.315 165.134 313.744 164.545C313.181 163.955 312.438 163.661 311.515 163.661C310.89 163.661 310.328 163.819 309.827 164.136C309.334 164.443 308.943 164.879 308.653 165.441C308.363 165.995 308.218 166.646 308.218 167.393V179.553H302.599Z" fill="#838383"></path>
  <path d="M353.319 179.949C351.235 179.949 349.442 179.527 347.938 178.683C346.444 177.83 345.292 176.625 344.483 175.069C343.674 173.504 343.27 171.653 343.27 169.517C343.27 167.433 343.674 165.604 344.483 164.03C345.292 162.456 346.43 161.23 347.899 160.351C349.376 159.471 351.108 159.032 353.095 159.032C354.431 159.032 355.676 159.247 356.827 159.678C357.988 160.1 358.999 160.737 359.861 161.59C360.731 162.443 361.408 163.516 361.892 164.808C362.375 166.092 362.617 167.595 362.617 169.319V170.862H345.512V167.38H357.328C357.328 166.571 357.153 165.855 356.801 165.23C356.449 164.606 355.961 164.118 355.337 163.766C354.722 163.406 354.005 163.226 353.187 163.226C352.334 163.226 351.578 163.424 350.919 163.819C350.268 164.206 349.758 164.729 349.389 165.389C349.02 166.039 348.831 166.765 348.822 167.565V170.875C348.822 171.877 349.007 172.743 349.376 173.473C349.754 174.203 350.286 174.766 350.972 175.161C351.657 175.557 352.471 175.755 353.412 175.755C354.036 175.755 354.607 175.667 355.126 175.491C355.645 175.315 356.089 175.051 356.458 174.7C356.827 174.348 357.109 173.917 357.302 173.407L362.498 173.75C362.235 174.999 361.694 176.089 360.876 177.021C360.067 177.944 359.021 178.665 357.737 179.184C356.462 179.694 354.99 179.949 353.319 179.949Z" fill="#838383"></path>
  <path d="M383.05 179.949C380.975 179.949 379.19 179.509 377.695 178.63C376.209 177.742 375.066 176.511 374.266 174.937C373.475 173.363 373.079 171.552 373.079 169.503C373.079 167.428 373.479 165.608 374.279 164.043C375.088 162.47 376.236 161.243 377.722 160.364C379.207 159.476 380.975 159.032 383.023 159.032C384.791 159.032 386.338 159.353 387.666 159.995C388.993 160.636 390.044 161.538 390.818 162.698C391.591 163.859 392.018 165.222 392.097 166.787H386.795C386.646 165.775 386.25 164.962 385.608 164.347C384.975 163.722 384.144 163.41 383.116 163.41C382.245 163.41 381.485 163.648 380.834 164.123C380.192 164.589 379.691 165.27 379.331 166.167C378.97 167.064 378.79 168.149 378.79 169.424C378.79 170.717 378.966 171.816 379.317 172.721C379.678 173.627 380.183 174.317 380.834 174.792C381.485 175.267 382.245 175.504 383.116 175.504C383.757 175.504 384.333 175.372 384.843 175.108C385.362 174.845 385.788 174.462 386.123 173.961C386.465 173.451 386.69 172.84 386.795 172.128H392.097C392.009 173.675 391.587 175.038 390.831 176.216C390.084 177.386 389.05 178.3 387.732 178.96C386.413 179.619 384.852 179.949 383.05 179.949Z" fill="#838383"></path>
  <path d="M408.926 167.842V179.553H403.308V152.543H408.768V162.87H409.005C409.462 161.674 410.201 160.737 411.221 160.06C412.241 159.375 413.52 159.032 415.058 159.032C416.465 159.032 417.692 159.34 418.738 159.955C419.793 160.562 420.611 161.436 421.191 162.579C421.78 163.714 422.07 165.072 422.062 166.655V179.553H416.443V167.657C416.452 166.409 416.135 165.437 415.494 164.742C414.861 164.048 413.973 163.7 412.83 163.7C412.065 163.7 411.388 163.863 410.799 164.188C410.218 164.514 409.761 164.989 409.427 165.613C409.102 166.228 408.935 166.971 408.926 167.842Z" fill="#838383"></path>
  <path d="M439.873 179.935C438.58 179.935 437.429 179.711 436.418 179.263C435.406 178.806 434.606 178.133 434.017 177.245C433.437 176.348 433.147 175.232 433.147 173.895C433.147 172.77 433.353 171.825 433.767 171.06C434.18 170.295 434.743 169.679 435.455 169.213C436.167 168.747 436.976 168.396 437.881 168.158C438.796 167.921 439.754 167.754 440.757 167.657C441.935 167.534 442.884 167.42 443.605 167.314C444.326 167.2 444.849 167.033 445.175 166.813C445.5 166.593 445.663 166.268 445.663 165.837V165.758C445.663 164.923 445.399 164.276 444.871 163.819C444.353 163.362 443.614 163.133 442.656 163.133C441.645 163.133 440.84 163.358 440.242 163.806C439.644 164.246 439.249 164.8 439.055 165.468L433.859 165.046C434.123 163.815 434.641 162.751 435.415 161.854C436.189 160.948 437.187 160.254 438.409 159.77C439.64 159.278 441.064 159.032 442.682 159.032C443.807 159.032 444.885 159.164 445.913 159.427C446.951 159.691 447.87 160.1 448.67 160.654C449.479 161.208 450.116 161.92 450.582 162.79C451.048 163.652 451.281 164.685 451.281 165.89V179.553H445.953V176.744H445.795C445.469 177.377 445.034 177.935 444.489 178.419C443.944 178.894 443.289 179.267 442.524 179.54C441.759 179.804 440.875 179.935 439.873 179.935ZM441.482 176.058C442.308 176.058 443.038 175.895 443.671 175.57C444.304 175.236 444.801 174.788 445.161 174.225C445.522 173.662 445.702 173.025 445.702 172.313V170.163C445.526 170.277 445.285 170.383 444.977 170.479C444.678 170.567 444.339 170.651 443.961 170.73C443.583 170.8 443.205 170.866 442.827 170.928C442.449 170.981 442.106 171.029 441.798 171.073C441.139 171.17 440.563 171.323 440.071 171.534C439.578 171.745 439.196 172.031 438.923 172.392C438.651 172.743 438.514 173.183 438.514 173.711C438.514 174.475 438.791 175.06 439.345 175.465C439.908 175.86 440.62 176.058 441.482 176.058Z" fill="#838383"></path>
  <path d="M468.871 167.842V179.553H463.253V159.296H468.608V162.87H468.845C469.293 161.691 470.045 160.759 471.1 160.074C472.155 159.379 473.435 159.032 474.938 159.032C476.345 159.032 477.571 159.34 478.618 159.955C479.664 160.57 480.477 161.45 481.058 162.593C481.638 163.727 481.928 165.081 481.928 166.655V179.553H476.31V167.657C476.318 166.417 476.002 165.45 475.36 164.756C474.718 164.052 473.835 163.7 472.709 163.7C471.953 163.7 471.285 163.863 470.705 164.188C470.133 164.514 469.685 164.989 469.359 165.613C469.043 166.228 468.88 166.971 468.871 167.842Z" fill="#838383"></path>
  <path d="M493.969 179.553V159.296H499.588V179.553H493.969ZM496.792 156.684C495.956 156.684 495.24 156.407 494.642 155.853C494.053 155.291 493.758 154.618 493.758 153.836C493.758 153.062 494.053 152.398 494.642 151.844C495.24 151.281 495.956 151 496.792 151C497.627 151 498.339 151.281 498.928 151.844C499.526 152.398 499.825 153.062 499.825 153.836C499.825 154.618 499.526 155.291 498.928 155.853C498.339 156.407 497.627 156.684 496.792 156.684Z" fill="#838383"></path>
  <path d="M520.854 179.949C518.78 179.949 516.995 179.509 515.5 178.63C514.014 177.742 512.871 176.511 512.071 174.937C511.28 173.363 510.884 171.552 510.884 169.503C510.884 167.428 511.284 165.608 512.084 164.043C512.893 162.47 514.04 161.243 515.526 160.364C517.012 159.476 518.78 159.032 520.828 159.032C522.595 159.032 524.143 159.353 525.47 159.995C526.798 160.636 527.849 161.538 528.622 162.698C529.396 163.859 529.823 165.222 529.902 166.787H524.6C524.451 165.775 524.055 164.962 523.413 164.347C522.78 163.722 521.949 163.41 520.92 163.41C520.05 163.41 519.289 163.648 518.639 164.123C517.997 164.589 517.496 165.27 517.135 166.167C516.775 167.064 516.595 168.149 516.595 169.424C516.595 170.717 516.771 171.816 517.122 172.721C517.483 173.627 517.988 174.317 518.639 174.792C519.289 175.267 520.05 175.504 520.92 175.504C521.562 175.504 522.138 175.372 522.648 175.108C523.167 174.845 523.593 174.462 523.927 173.961C524.27 173.451 524.495 172.84 524.6 172.128H529.902C529.814 173.675 529.392 175.038 528.636 176.216C527.888 177.386 526.855 178.3 525.536 178.96C524.218 179.619 522.657 179.949 520.854 179.949Z" fill="#838383"></path>
  <path d="M546.889 179.935C545.596 179.935 544.445 179.711 543.434 179.263C542.422 178.806 541.622 178.133 541.033 177.245C540.453 176.348 540.163 175.232 540.163 173.895C540.163 172.77 540.369 171.825 540.783 171.06C541.196 170.295 541.759 169.679 542.471 169.213C543.183 168.747 543.992 168.396 544.897 168.158C545.812 167.921 546.77 167.754 547.773 167.657C548.951 167.534 549.9 167.42 550.621 167.314C551.342 167.2 551.865 167.033 552.191 166.813C552.516 166.593 552.679 166.268 552.679 165.837V165.758C552.679 164.923 552.415 164.276 551.887 163.819C551.369 163.362 550.63 163.133 549.672 163.133C548.661 163.133 547.856 163.358 547.258 163.806C546.66 164.246 546.265 164.8 546.071 165.468L540.875 165.046C541.139 163.815 541.658 162.751 542.431 161.854C543.205 160.948 544.203 160.254 545.425 159.77C546.656 159.278 548.08 159.032 549.698 159.032C550.823 159.032 551.901 159.164 552.929 159.427C553.967 159.691 554.885 160.1 555.686 160.654C556.495 161.208 557.132 161.92 557.598 162.79C558.064 163.652 558.297 164.685 558.297 165.89V179.553H552.969V176.744H552.81C552.485 177.377 552.05 177.935 551.505 178.419C550.96 178.894 550.305 179.267 549.54 179.54C548.775 179.804 547.891 179.935 546.889 179.935ZM548.498 176.058C549.324 176.058 550.054 175.895 550.687 175.57C551.32 175.236 551.817 174.788 552.177 174.225C552.538 173.662 552.718 173.025 552.718 172.313V170.163C552.542 170.277 552.301 170.383 551.993 170.479C551.694 170.567 551.355 170.651 550.977 170.73C550.599 170.8 550.221 170.866 549.843 170.928C549.465 170.981 549.122 171.029 548.814 171.073C548.155 171.17 547.579 171.323 547.087 171.534C546.594 171.745 546.212 172.031 545.939 172.392C545.667 172.743 545.53 173.183 545.53 173.711C545.53 174.475 545.807 175.06 546.361 175.465C546.924 175.86 547.636 176.058 548.498 176.058Z" fill="#838383"></path>
  <path d="M575.887 152.543V179.553H570.269V152.543H575.887Z" fill="#838383"></path>
</svg>
