<svg xmlns="http://www.w3.org/2000/svg" width="32" height="32" fill="none"><path d="M14.667 24h-4a.667.667 0 0 1 0-1.333h4a.667.667 0 0 1 0 1.333z" fill="#000"/><path d="M14 24h-2.667a.665.665 0 0 1-.666-.827l.666-2.666A.667.667 0 0 1 12 20h1.333a.667.667 0 0 1 .667.507l.667 2.666A.666.666 0 0 1 14 24zm-1.813-1.333h.96l-.334-1.334h-.293l-.333 1.334z" fill="#000"/><path d="M12.667 21.333a.667.667 0 0 1-.667-.666v-2a.666.666 0 1 1 1.333 0v2a.667.667 0 0 1-.666.666zM7.333 24.667H2a2 2 0 0 1-2-2v-1.334a2 2 0 0 1 2-2h5.333a2 2 0 0 1 2 2v1.334a2 2 0 0 1-2 2zm-5.333-4a.667.667 0 0 0-.667.666v1.334a.667.667 0 0 0 .667.666h5.333A.666.666 0 0 0 8 22.668v-1.334a.667.667 0 0 0-.667-.666H2z" fill="#000"/><path d="M30 22.7c-.093 0 1.267.233-19.813-3.487a.667.667 0 0 1-.54-.766 2 2 0 1 0-3.94-.7.667.667 0 0 1-.774.546l-2.626-.466a.668.668 0 0 1-.54-.774l.606-3.453a2.667 2.667 0 0 1 2.854-2.193l5.213.44 3.133-3.08a2.667 2.667 0 0 1 2.334-.727L23.6 9.373a2.667 2.667 0 0 1 2.047 1.72l1.333 3.66 2.52.827a2.666 2.666 0 0 1 1.8 2.993l-.633 3.574A.667.667 0 0 1 30 22.7zM11.02 18l18.453 3.253.527-2.88a1.333 1.333 0 0 0-.9-1.5l-2.827-.926a.667.667 0 0 1-.426-.407l-1.42-3.967a1.334 1.334 0 0 0-1.02-.866l-7.72-1.374a1.333 1.333 0 0 0-1.167.367l-3.333 3.293a.666.666 0 0 1-.52.187l-5.52-.467a1.333 1.333 0 0 0-1.427 1.1l-.493 2.794 1.38.246A3.334 3.334 0 0 1 11.02 18z" fill="#000"/><path d="m24.453 15.633-11.92-2.1 2.927-2.866 7.693 1.353 1.3 3.613z" fill="#F9D718"/><path d="M7.687 18.767a.667.667 0 1 0 0-1.334.667.667 0 0 0 0 1.334zM24 24a3.333 3.333 0 1 1 0-6.666A3.333 3.333 0 0 1 24 24zm0-5.333a2 2 0 1 0 0 4 2 2 0 0 0 0-4z" fill="#000"/></svg>