<svg xmlns="http://www.w3.org/2000/svg" width="32" height="32" fill="none"><path d="m12.413 9.687 2.174 2.98c-.32.314-.684.582-1.08.793l-2.174-2.993-2.173 3a4.696 4.696 0 0 1-1.08-.8l2.173-2.987L6.74 8.533c.07-.44.207-.867.407-1.266l3.52 1.146V4.72a4.066 4.066 0 0 1 1.333 0v3.693l3.52-1.14c.2.4.337.826.407 1.267l-3.514 1.147z" fill="#F9D718"/><path d="M11.333 11.333a2 2 0 1 0 0-4 2 2 0 0 0 0 4z" fill="#F9D718"/><path d="m29.24 27.287-3.107-11.594a2.667 2.667 0 0 0-3.26-1.886l-2.58.666a2.667 2.667 0 0 0-1.953 2.367c-.6-.24-.853-.2-2.407-.2a8.667 8.667 0 1 0-9.2 0h-1.4a2.667 2.667 0 0 0-2.666 2.667v2.666a2.667 2.667 0 0 0 .92 2A2.667 2.667 0 0 0 2.667 26v2.667a2.667 2.667 0 0 0 2.666 2.666h12A2.666 2.666 0 0 0 20 28.667V26a2.667 2.667 0 0 0-.92-2c.32-.277.569-.627.727-1.02l1.706 6.353a2.668 2.668 0 0 0 3.267 1.887l2.573-.667a2.666 2.666 0 0 0 1.887-3.266zM4 9.333a7.333 7.333 0 1 1 14.667 0A7.333 7.333 0 0 1 4 9.333zM18.667 26v2.667A1.333 1.333 0 0 1 17.333 30h-12A1.334 1.334 0 0 1 4 28.667V26a1.333 1.333 0 0 1 1.333-1.333h12A1.333 1.333 0 0 1 18.667 26zM5.333 23.333A1.334 1.334 0 0 1 4 22v-2.667A1.333 1.333 0 0 1 5.333 18h12a1.333 1.333 0 0 1 1.334 1.333V22a1.333 1.333 0 0 1-1.334 1.333h-12zm21.68 5.934-2.58.666a1.333 1.333 0 0 1-1.633-.94L19.693 17.42a1.333 1.333 0 0 1 .974-1.633c2.873-.767 2.666-.734 2.92-.734a1.333 1.333 0 0 1 1.286.987l3.107 11.593a1.332 1.332 0 0 1-.967 1.634z" fill="#000"/></svg>